# Blender v2.90.1 OBJ File: ''
# www.blender.org
mtllib breadCollision.mtl
o BurgerPrism
v -0.068497 0.008576 -0.070738
v 0.068497 0.008576 -0.070738
v -0.042811 0.000000 -0.044211
v 0.042811 0.000000 -0.044211
v 0.042811 0.000000 0.044211
v 0.068497 0.008576 0.070738
v -0.042811 0.020420 0.044211
v -0.068497 0.011843 0.070738
v 0.042811 0.020420 0.044211
v 0.068497 0.011843 0.070738
v -0.042811 0.000000 0.044211
v -0.042811 0.020420 -0.044211
v -0.068497 0.011843 -0.070738
v -0.068497 0.008576 0.070738
v 0.068497 0.011843 -0.070738
v 0.042811 0.020420 -0.044211
vn -0.6067 -0.5129 -0.6074
vn 0.6067 -0.5129 -0.6074
vn -0.1221 -0.9856 -0.1170
vn 0.1221 -0.9856 -0.1170
vn 0.1221 -0.9856 0.1170
vn 0.6067 -0.5129 0.6074
vn -0.1221 0.9856 0.1170
vn -0.6067 0.5129 0.6074
vn 0.1221 0.9856 0.1170
vn 0.6067 0.5129 0.6074
vn -0.1221 -0.9856 0.1170
vn -0.1221 0.9856 -0.1170
vn -0.6067 0.5129 -0.6074
vn -0.6067 -0.5129 0.6074
vn 0.6067 0.5129 -0.6074
vn 0.1221 0.9856 -0.1170
usemtl Default_OBJ
s 1
f 1//1 2//2 3//3
f 2//2 4//4 3//3
f 4//4 2//2 5//5
f 2//2 6//6 5//5
f 7//7 8//8 9//9
f 8//8 10//10 9//9
f 11//11 3//3 5//5
f 3//3 4//4 5//5
f 12//12 13//13 7//7
f 13//13 8//8 7//7
f 5//5 6//6 11//11
f 6//6 14//14 11//11
f 10//10 15//15 9//9
f 15//15 16//16 9//9
f 13//13 15//15 1//1
f 15//15 2//2 1//1
f 15//15 10//10 2//2
f 10//10 6//6 2//2
f 11//11 14//14 3//3
f 14//14 1//1 3//3
f 16//16 15//15 12//12
f 15//15 13//13 12//12
f 8//8 13//13 14//14
f 13//13 1//1 14//14
f 10//10 8//8 6//6
f 8//8 14//14 6//6
f 12//12 7//7 16//16
f 7//7 9//9 16//16
