####
#
# OBJ File Generated by Meshlab
#
####
# Object GrillBottom.obj
#
# Vertices: 8
# Faces: 12
#
####
vn -1.570796 -1.570795 -1.570796
v -1.117600 -0.279400 0.457200
vn -1.570796 1.570795 -1.570796
v -1.117600 0.279400 0.457200
vn 1.570796 -1.570796 -1.570796
v -0.508000 -0.279400 0.457200
vn 1.570796 1.570796 -1.570796
v -0.508000 0.279400 0.457200
vn 1.570796 1.570795 1.570796
v -0.508000 0.279400 0.482600
vn -1.570796 1.570796 1.570796
v -1.117600 0.279400 0.482600
vn -1.570796 -1.570796 1.570796
v -1.117600 -0.279400 0.482600
vn 1.570796 -1.570795 1.570796
v -0.508000 -0.279400 0.482600
# 8 vertices, 0 vertices normals

f 1//1 2//2 3//3
f 2//2 4//4 3//3
f 4//4 2//2 5//5
f 2//2 6//6 5//5
f 6//6 2//2 7//7
f 2//2 1//1 7//7
f 7//7 1//1 8//8
f 1//1 3//3 8//8
f 5//5 6//6 8//8
f 6//6 7//7 8//8
f 3//3 4//4 8//8
f 4//4 5//5 8//8
# 12 faces, 0 coords texture

# End of File
