####
#
# OBJ File Generated by Meshlab
#
####
# Object SpatulaHandle.obj
#
# Vertices: 56
# Faces: 108
#
####
vn -2.326338 -2.094032 1.372824
v 0.100000 -0.012731 0.060940
vn -2.326394 2.094028 1.373012
v 0.100000 0.012731 0.060940
vn -2.994214 -3.136673 0.094060
v 0.100000 -0.012833 0.057115
vn -2.997416 3.136845 0.093442
v 0.100000 0.012833 0.057115
vn -2.897100 -3.128364 0.151298
v 0.100000 -0.013000 0.053450
vn -2.891099 3.127874 0.151623
v 0.100000 0.013000 0.053450
vn -2.799116 -3.115931 0.207482
v 0.100000 -0.013232 0.049799
vn -2.788214 3.114630 0.208682
v 0.100000 0.013232 0.049799
vn -2.665668 3.093231 0.273585
v 0.100000 0.013521 0.046275
vn -2.678017 -3.094323 0.282180
v 0.100000 -0.013521 0.046275
vn -2.642140 3.086540 0.305436
v 0.100000 0.013697 0.044441
vn -2.660968 -3.088637 0.314296
v 0.100000 -0.013697 0.044441
vn -0.607196 1.017953 -1.083641
v 0.100000 0.013890 0.042609
vn -0.609193 -1.018683 -1.087447
v 0.100000 -0.013890 0.042609
vn 1.711255 -3.137858 -2.689986
v 0.107547 -0.012748 0.046966
vn 1.829675 -3.128891 -2.621619
v 0.105632 -0.012893 0.045860
vn 1.947644 3.113979 -2.553509
v 0.103724 0.013135 0.044759
vn 2.055390 3.094480 -2.483077
v 0.101827 0.013472 0.043664
vn 1.947644 -3.113979 -2.553508
v 0.103724 -0.013135 0.044759
vn 2.063740 -3.093327 -2.485727
v 0.101827 -0.013472 0.043664
vn 1.829674 3.128891 -2.621619
v 0.105632 0.012893 0.045860
vn 1.711255 3.137859 -2.689986
v 0.107547 0.012748 0.046966
vn 1.611377 -3.141217 -2.722461
v 0.109466 -0.012700 0.048074
vn 1.611377 3.141217 -2.722461
v 0.109466 0.012700 0.048074
vn 2.145747 -1.570808 -0.574951
v 0.216660 -0.012700 0.109963
vn 2.145747 1.570808 -0.574951
v 0.216660 0.012700 0.109963
vn 0.923497 -6.189709 0.548572
v 0.101033 -0.013472 0.045038
vn 0.702967 -6.228137 0.423045
v 0.102930 -0.013135 0.046134
vn 0.059351 -6.282438 0.034266
v 0.108672 -0.012700 0.049449
vn 0.237288 -6.275712 0.136999
v 0.106753 -0.012748 0.048341
vn 0.464335 -6.258308 0.282660
v 0.104838 -0.012893 0.047235
vn 0.058378 -6.282451 0.034726
v 0.107878 -0.012700 0.050824
vn 0.220157 -6.276704 0.135504
v 0.105960 -0.012748 0.049716
vn 0.356105 -6.268328 0.229633
v 0.104694 -0.012833 0.048985
vn 0.485612 -6.257964 0.277602
v 0.104044 -0.012893 0.048610
vn 0.586425 -6.245694 0.346976
v 0.103107 -0.013000 0.048069
vn 0.930059 -6.191380 0.524114
v 0.100239 -0.013472 0.046413
vn 0.802932 -6.213635 0.467746
v 0.101526 -0.013232 0.047156
vn 0.704796 -6.230392 0.400264
v 0.102136 -0.013135 0.047508
vn 0.915791 6.192454 0.531351
v 0.101033 0.013472 0.045038
vn 0.059351 6.282438 0.034266
v 0.108672 0.012700 0.049449
vn 0.229700 6.276058 0.139130
v 0.106753 0.012748 0.048341
vn 0.470644 6.257655 0.286640
v 0.104838 0.012893 0.047235
vn 0.705300 6.228328 0.413165
v 0.102930 0.013135 0.046134
vn 0.919448 6.193494 0.517559
v 0.100239 0.013472 0.046413
vn 0.804800 6.211814 0.487145
v 0.101526 0.013232 0.047156
vn 0.686125 6.232018 0.405990
v 0.102136 0.013135 0.047508
vn 0.586269 6.243780 0.375959
v 0.103107 0.013000 0.048069
vn 0.058378 6.282451 0.034726
v 0.107878 0.012700 0.050824
vn 0.218355 6.277094 0.125920
v 0.105960 0.012748 0.049716
vn 0.369966 6.267941 0.221866
v 0.104694 0.012833 0.048985
vn 0.483298 6.258107 0.278742
v 0.104044 0.012893 0.048610
vn 0.574951 -1.570797 2.145748
v 0.208723 -0.012700 0.123711
vn 0.574951 1.570797 2.145748
v 0.208723 0.012700 0.123711
vn -1.555851 -3.141354 2.749391
v 0.101528 -0.012700 0.061822
vn -1.555851 3.141354 2.749391
v 0.101528 0.012700 0.061822
# 56 vertices, 0 vertices normals

f 1//1 2//2 3//3
f 2//2 4//4 3//3
f 3//3 4//4 5//5
f 4//4 6//6 5//5
f 5//5 6//6 7//7
f 6//6 8//8 7//7
f 8//8 9//9 7//7
f 7//7 9//9 10//10
f 9//9 11//11 10//10
f 10//10 11//11 12//12
f 11//11 13//13 12//12
f 12//12 13//13 14//14
f 15//15 16//16 17//17
f 17//17 16//16 18//18
f 16//16 19//19 18//18
f 18//18 19//19 13//13
f 19//19 20//20 13//13
f 13//13 20//20 14//14
f 17//17 21//21 15//15
f 21//21 22//22 15//15
f 15//15 22//22 23//23
f 22//22 24//24 23//23
f 23//23 24//24 25//25
f 24//24 26//26 25//25
f 12//12 14//14 27//27
f 14//14 20//20 27//27
f 27//27 20//20 28//28
f 23//23 29//29 15//15
f 29//29 30//30 15//15
f 15//15 30//30 16//16
f 30//30 31//31 16//16
f 16//16 31//31 19//19
f 29//29 32//32 30//30
f 32//32 33//33 30//30
f 30//30 33//33 31//31
f 33//33 34//34 31//31
f 31//31 34//34 35//35
f 35//35 36//36 31//31
f 36//36 28//28 31//31
f 31//31 28//28 19//19
f 28//28 20//20 19//19
f 10//10 12//12 37//37
f 12//12 27//27 37//37
f 37//37 27//27 38//38
f 27//27 28//28 38//38
f 38//38 28//28 39//39
f 28//28 36//36 39//39
f 40//40 11//11 9//9
f 13//13 11//11 18//18
f 11//11 40//40 18//18
f 18//18 40//40 17//17
f 41//41 24//24 42//42
f 24//24 22//22 42//42
f 42//42 22//22 43//43
f 22//22 21//21 43//43
f 43//43 21//21 44//44
f 9//9 45//45 40//40
f 45//45 44//44 40//40
f 40//40 44//44 17//17
f 44//44 21//21 17//17
f 45//45 46//46 44//44
f 46//46 47//47 44//44
f 44//44 47//47 43//43
f 47//47 48//48 43//43
f 49//49 41//41 50//50
f 41//41 42//42 50//50
f 50//50 42//42 51//51
f 42//42 43//43 51//51
f 51//51 43//43 52//52
f 43//43 48//48 52//52
f 53//53 25//25 54//54
f 25//25 26//26 54//54
f 25//25 53//53 55//55
f 55//55 32//32 25//25
f 32//32 29//29 25//25
f 25//25 29//29 23//23
f 10//10 37//37 7//7
f 37//37 38//38 7//7
f 7//7 38//38 5//5
f 38//38 39//39 5//5
f 39//39 36//36 5//5
f 5//5 36//36 3//3
f 36//36 35//35 3//3
f 35//35 34//34 3//3
f 34//34 33//33 3//3
f 3//3 33//33 1//1
f 33//33 32//32 1//1
f 1//1 32//32 55//55
f 53//53 54//54 55//55
f 54//54 56//56 55//55
f 55//55 56//56 1//1
f 56//56 2//2 1//1
f 56//56 54//54 49//49
f 54//54 26//26 49//49
f 49//49 26//26 41//41
f 26//26 24//24 41//41
f 45//45 9//9 8//8
f 2//2 56//56 49//49
f 49//49 50//50 2//2
f 50//50 51//51 2//2
f 2//2 51//51 4//4
f 51//51 52//52 4//4
f 4//4 52//52 6//6
f 52//52 48//48 6//6
f 48//48 47//47 6//6
f 6//6 47//47 8//8
f 47//47 46//46 8//8
f 8//8 46//46 45//45
# 108 faces, 0 coords texture

# End of File
